# xmcd
#
# Track frame offsets: 
#        150
#        3487
#        10995
#        14098
#        18293
#        21989
#        25551
#        35982
#        39186
#        70878
#        73163
#        75744
#        77722
#        91393
#        96384
#        99287
#        104693
#        112633
#        120643
#        133356
#        139949
#        141767
#        148491
#        150445
#        156909
#        166800
#        170013
#        177950
#        180617
#        195651
#        199926
#        206916
#        210094
#        215204
#        221245
#        223177
#        225306
#        227742
#        230537
#        233881
#        244501
#        245755
#        256993
#        259414
#        261073
#        266127
#        271100
#        274550
#        281198
#        283647
#        284563
#        290373
#        304267
#        308113
#        318161
#
# Disc length: 4261 seconds
#
# Revision: 8
# Processed by: cddbd v1.5.2PL0 Copyright (c) Steve Scherf et al.
# Submitted via: ExactAudioCopy v0.99pb4
#
DISCID=4310a337
DTITLE=Various Artist - Die Lieblingsgedichte der Deutschen
DYEAR=2000
DGENRE=Speech
TTITLE0=Volker Niehusmann - Poem 1
TTITLE1=Hermann Hesse - Stufen
TTITLE2=Joseph von Eichendorf - Mondnacht
TTITLE3=Rainer Maria Rilke - Herbsttag
TTITLE4=Rainer Maria Rilke - Der Panther
TTITLE5=Volker Niehusmann - Poem 2
TTITLE6=Theodor Fontane - Herr von Ribbeck auf Ribbeck im Haveland
TTITLE7=Erich Fried - Was ist es
TTITLE8=Friedrich Schller - Die Bürgschaft
TTITLE9=Eduard Mörike - Er ist´s
TTITLE10=Conrad Ferdinand Meyer - Der römische Brunnen
TTITLE11=Volker Niehusmann - Poem 3
TTITLE12=Johann Wolfgang Goethe - Der Zauberlehrling
TTITLE13=Friedrich Hölderlin - Hälfte des Lebens
TTITLE14=Rainer Maria Rilke - Herbst
TTITLE15=Matthias Claudius - Abendlied
TTITLE16=Johann Wolfgang Goethe - An den Mond
TTITLE17=Johann Wolfgang Goethe - Erlkönig
TTITLE18=Paul Celan - Todesfuge
TTITLE19=Volker Niehusmann - Poem 4
TTITLE20=Joseph von Eichendorf - Wünschelrute
TTITLE21=Erich Kästner - Der Mai
TTITLE22=Johann Wolfgang Goethe - Wandrers Nachtlied II
TTITLE23=Eduard Mörike - Um Mitternacht
TTITLE24=Johann Wolfgang Goethe - Prometheus
TTITLE25=Friedrich Hebbel - Herbstbild
TTITLE26=Otto Ernst - Nis Randers
TTITLE27=Volker Niehusmann - Poem 5
TTITLE28=Theodor Fontane - John Maynard
TTITLE29=Ludwig Uhland - Frühlingsglaube
TTITLE30=Theodor Storm - Abseits
TTITLE31=Rainer Maria Rilke - Ich leben mein Leben in wachsenden Ringe
TTITLE31=n
TTITLE32=Erich Kästner - Sachliche Romanze
TTITLE33=Heinz Erhardt - Die Made
TTITLE34=Joachim Ringelnatz - Die Ameisen
TTITLE35=Volker Niehusmann - Poem 6
TTITLE36=Jakob van Hoddis - Weltende
TTITLE37=Ina Seidel - Trost
TTITLE38=Gottfried Benn - Nur zwei Dinge
TTITLE39=Anette von Dorste-Hülshoff - Der Knabe im Moor - Annette von 
TTITLE39=Droste
TTITLE40=Hilde Domin - Nicht müde werden
TTITLE41=Berthold Brecht - Erinnerungen an die Marie A.
TTITLE42=Wilhelm Busch - Selbstkritik
TTITLE43=Heinrich Heine - Das Fräulein stand am Meere
TTITLE44=Ingeborg Bachmann - Die gestundete Zeit
TTITLE45=Christian Morgenstern - Das ästhetische Wiesel
TTITLE46=Else Laske-Schüler - Mein blaues Klavier - Else Lasker
TTITLE47=Kurt Tucholsky - Ideal und Wirklichkeit
TTITLE48=Rose Ausländer - Nicht fertig werden
TTITLE49=Eugen Roth - Ein Mensch erhofft sich
TTITLE50=Volker Niehusmann - Poem 7
TTITLE51=Johann Wolfgang Goethe - An Charlotte von Stein
TTITLE52=Georg Trakl - Verklärter Herbst
TTITLE53=Joachim Ringelnatz - Seemannstreue
TTITLE54=Joseph von Eichendorf - Trinken und Singen
EXTD=YEAR: 2000
EXTT0=
EXTT1=
EXTT2=
EXTT3=
EXTT4=
EXTT5=
EXTT6=
EXTT7=
EXTT8=
EXTT9=
EXTT10=
EXTT11=
EXTT12=
EXTT13=
EXTT14=
EXTT15=
EXTT16=
EXTT17=
EXTT18=
EXTT19=
EXTT20=
EXTT21=
EXTT22=
EXTT23=
EXTT24=
EXTT25=
EXTT26=
EXTT27=
EXTT28=
EXTT29=
EXTT30=
EXTT31=
EXTT32=
EXTT33=
EXTT34=
EXTT35=
EXTT36=
EXTT37=
EXTT38=
EXTT39=
EXTT40=
EXTT41=
EXTT42=
EXTT43=
EXTT44=
EXTT45=
EXTT46=
EXTT47=
EXTT48=
EXTT49=
EXTT50=
EXTT51=
EXTT52=
EXTT53=
EXTT54=
PLAYORDER=
